<?xml version="1.0" encoding="iso-8859-1"?>
<!-- Generator: Adobe Illustrator 16.0.0, SVG Export Plug-In . SVG Version: 6.00 Build 0)  -->
<!DOCTYPE svg PUBLIC "-//W3C//DTD SVG 1.1//EN" "http://www.w3.org/Graphics/SVG/1.1/DTD/svg11.dtd">
<svg version="1.1" id="Capa_1" xmlns="http://www.w3.org/2000/svg" xmlns:xlink="http://www.w3.org/1999/xlink" x="0px" y="0px"
	 width="621.121px" height="621.121px" viewBox="0 0 621.121 621.121" style="enable-background:new 0 0 621.121 621.121;"
	 xml:space="preserve" fill="#ccc">
<g>
	<path style="fill:#ccc;" d="M197.85,48.183c-0.166,0-0.166,0-0.332,0c-0.493-0.64-0.986-1.304-1.47-1.962
		C196.693,46.87,197.191,47.533,197.85,48.183L197.85,48.183z"/>
	<path style="fill:#ccc;" d="M209.692,183.435h129.501v32.909H209.692V183.435L209.692,183.435z M209.692,328.333v-11.956h34.027
		c11.207-5.85,23.011-13.909,35.715-25.11c3.868-3.418,7.348-6.187,10.913-9.107h-80.655v-31.586h129.501v0.304
		c10.031-4.233,18.924-6.552,27.476-8.367V96.394c0-0.502,0.161-0.991,0.161-1.484v-1.972c0.162-45.405,27.154-38.175,27.154-38.175
		c15.956,1.631,19.578,23.864,20.394,36.535c0.834,8.068,6.409,8.708,6.409,8.708h12.345c4.769,0,5.783-3.612,5.783-6.418
		c-0.171-0.981-0.171-1.967-0.342-3.133v-0.157c-1.138-9.376-3.129-23.679-5.765-31.425c-1.63-4.11-3.792-7.732-6.086-10.699
		c-0.493-0.64-0.986-1.304-1.479-1.962c-0.645-0.659-1.156-1.323-1.811-1.816c-1.337-1.318-2.627-2.456-3.935-3.456
		c-1.318-1.157-2.807-2.138-4.286-3.115c0-0.166-0.151-0.166-0.151-0.166c-2.807-1.649-5.612-2.972-8.732-4.11
		c-4.437-1.65-8.391-2.309-11.349-2.811c-1.83-0.166-3.451-0.322-5.271-0.322c-0.151,0-0.312,0-0.312,0h-0.825
		c-27.153,0-49.358,22.205-49.358,49.358v69.425h-129.52V96.394c0-0.502,0.166-0.991,0.166-1.484v-1.972
		c0-45.405,27.158-38.175,27.158-38.175c15.795,1.631,19.569,23.864,20.384,36.535c0.834,8.068,6.428,8.708,6.428,8.708h12.344
		c4.778,0,5.755-3.612,5.755-6.418c-0.161-0.981-0.161-1.967-0.322-3.133v-0.157c-1.157-9.376-3.138-23.679-5.764-31.425
		c-1.641-4.11-3.773-7.732-6.087-10.699c-0.484-0.64-0.986-1.304-1.489-1.962c-0.645-0.659-1.138-1.323-1.792-1.816
		c-1.318-1.318-2.645-2.456-3.963-3.456c-1.309-1.157-2.797-2.138-4.276-3.115c0-0.166-0.171-0.166-0.171-0.166
		c-2.797-1.649-5.594-2.972-8.713-4.11c-4.447-1.65-8.391-2.309-11.358-2.811c-1.811-0.166-3.441-0.322-5.271-0.322
		c-0.166,0-0.317,0-0.317,0h-0.815c-27.158,0-49.358,22.205-49.358,49.358V330.67C191.161,330.713,200.268,330.106,209.692,328.333
		L209.692,328.333z"/>
	<path style="fill:#ccc;" d="M579.585,515.598c0,15.738-12.752,28.519-28.51,28.519H70.036
		c-15.738,0-28.504-12.761-28.504-28.519V113.882H0v443.906c0,18.185,14.733,32.918,32.899,32.918h555.322
		c18.166,0,32.899-14.733,32.899-32.918V113.882h-41.536V515.598L579.585,515.598z"/>
	<path style="fillrgb(153,27,50);" d="M543.681,315.458c-5.329-5.096-12.335-10.292-19.598-16
		c-65.808-45.736-129.653-29.292-129.653-29.292c-25.172,5.11-49.358,8.234-97.74,50.847
		c-48.202,42.769-84.239,40.646-120.286,38.673c-36.028-2.152-72.397-33.089-80.115-40.664c-4.438-4.418-10.865-4.584-16.236-3.005
		c-7.969,3.281-9.879,14.051-10.259,21.181V489.81c0,13.33,14.814,24.366,32.899,24.366h415.634
		c18.261,0,32.908-11.036,32.908-24.366V339.094C550.857,331.869,549.246,321.592,543.681,315.458L543.681,315.458z"/>
</g>
<g>
</g>
<g>
</g>
<g>
</g>
<g>
</g>
<g>
</g>
<g>
</g>
<g>
</g>
<g>
</g>
<g>
</g>
<g>
</g>
<g>
</g>
<g>
</g>
<g>
</g>
<g>
</g>
<g>
</g>
</svg>
