<?xml version="1.0" encoding="iso-8859-1"?>
<!-- Generator: Adobe Illustrator 19.0.0, SVG Export Plug-In . SVG Version: 6.00 Build 0)  -->
<svg version="1.1" id="Capa_1" xmlns="http://www.w3.org/2000/svg" xmlns:xlink="http://www.w3.org/1999/xlink" x="0px" y="0px"
	 viewBox="0 0 512.042 512.042" style="enable-background:new 0 0 512.042 512.042;" xml:space="preserve">
<path style="fill:#F2F2F2;" d="M486.239,228.5v259.104c0,13.472-10.912,24.384-24.384,24.384H50.165
	c-13.461,0-24.373-10.912-24.373-24.384V228.5H486.239z"/>
<rect x="25.791" y="228.511" style="fill:#E8EAEA;" width="460.48" height="35.776"/>
<path style="fill:#F2F2F2;" d="M512.021,228.49v-91.104c0-13.472-10.912-24.384-24.384-24.384H24.394
	c-13.472,0-24.373,10.923-24.373,24.384v91.104L512.021,228.49L512.021,228.49z"/>
<g>
	<path style="fill:#FF7058;" d="M391.199,268.074l23.883-21.909c-0.139,0.064-13.109,6.048-27.275-0.565
		c-12.683-5.931-30.261-23.723-41.771-75.115c-7.883-31.979-37.568-51.008-69.493-62.357l9.547,50.816
		c9.568,5.877,16.395,12.907,18.453,21.237c12.224,54.539,34.144,89.472,65.195,104.043c32.256,15.072,60.768,1.888,64.64-0.064
		l0.203-0.096L391.199,268.074z"/>
	<rect x="220.138" y="106.602" style="fill:#FF7058;" width="71.755" height="405.44"/>
	<path style="fill:#FF7058;" d="M252.394,150.463c-38.496,23.776-101.92,74.464-108.224,109.227l-13.301-28.875l-28.661,21.323
		c11.637-64.789,115.915-130.677,127.765-137.952L252.394,150.463z"/>
	<path style="fill:#FF7058;" d="M256.021,105.599c0,0-97.579,22.656-123.2,3.712c-24.661-18.24-24.661-88.768,0-107.008
		c25.621-18.944,123.2,85.216,123.2,85.216V105.599z"/>
</g>
<path style="fill:#F1543F;" d="M132.831,72.543c-0.725,0.533-1.429,1.12-2.101,1.771c-9.387,8.907-9.387,24.32,0,33.227
	c0.672,0.64,1.376,1.227,2.101,1.76c25.6,18.944,123.189-3.712,123.189-3.712S158.431,53.62,132.831,72.543"/>
<path style="fill:#FF7058;" d="M256.021,105.599c0,0,97.568,22.656,123.189,3.712c24.661-18.24,24.661-88.768,0-107.008
	c-25.621-18.944-123.189,85.216-123.189,85.216V105.599z"/>
<path style="fill:#F1543F;" d="M379.199,72.543c0.725,0.533,1.429,1.12,2.101,1.771c9.387,8.907,9.387,24.32,0,33.227
	c-0.672,0.64-1.376,1.227-2.101,1.76c-25.589,18.944-123.189-3.712-123.189-3.712S353.599,53.62,379.199,72.543"/>
<path style="fill:#EA4939;" d="M233.365,63.679l-2.816,46.475c-0.064,1.355,1.067,2.496,2.485,2.496h45.963
	c1.419,0,2.539-1.141,2.475-2.496l-2.805-46.475c-0.064-1.28-1.163-2.283-2.496-2.283h-40.309
	C234.527,61.396,233.429,62.399,233.365,63.679"/>
<g>
</g>
<g>
</g>
<g>
</g>
<g>
</g>
<g>
</g>
<g>
</g>
<g>
</g>
<g>
</g>
<g>
</g>
<g>
</g>
<g>
</g>
<g>
</g>
<g>
</g>
<g>
</g>
<g>
</g>
</svg>
